<mxfile host="app.diagrams.net" modified="2024-05-24T09:41:51.077Z" agent="Mozilla/5.0 (Windows NT 10.0; Win64; x64) AppleWebKit/537.36 (KHTML, like Gecko) Chrome/124.0.0.0 Safari/537.36" etag="0arhldighsE8AuiNqVQJ" version="24.4.6" type="github">
  <diagram name="Page-1" id="nvjWPfyOZSqmQ-3Eg_VN">
    <mxGraphModel dx="1036" dy="516" grid="1" gridSize="10" guides="1" tooltips="1" connect="1" arrows="1" fold="1" page="1" pageScale="1" pageWidth="1654" pageHeight="1169" math="0" shadow="0">
      <root>
        <mxCell id="0" />
        <mxCell id="1" parent="0" />
        <mxCell id="1LF8vhfMmIGUZuDhbewy-1" value="&lt;div&gt;&lt;span style=&quot;font-size: 15px;&quot;&gt;patient&lt;/span&gt;&lt;/div&gt;&lt;font style=&quot;font-size: 15px;&quot;&gt;(ผู้ป่วย)&lt;/font&gt;" style="rounded=0;whiteSpace=wrap;html=1;" parent="1" vertex="1">
          <mxGeometry x="470" y="640" width="120" height="60" as="geometry" />
        </mxCell>
        <mxCell id="1LF8vhfMmIGUZuDhbewy-2" value="&lt;div&gt;&lt;span style=&quot;font-size: 15px;&quot;&gt;agent&lt;/span&gt;&lt;/div&gt;&lt;font style=&quot;font-size: 15px;&quot;&gt;(ผู้ยืม)&lt;/font&gt;" style="rounded=0;whiteSpace=wrap;html=1;" parent="1" vertex="1">
          <mxGeometry x="470" y="330" width="120" height="60" as="geometry" />
        </mxCell>
        <mxCell id="1LF8vhfMmIGUZuDhbewy-3" value="ดูแล" style="rhombus;whiteSpace=wrap;html=1;" parent="1" vertex="1">
          <mxGeometry x="490" y="490" width="80" height="60" as="geometry" />
        </mxCell>
        <mxCell id="1LF8vhfMmIGUZuDhbewy-4" value="&lt;div&gt;&lt;font style=&quot;font-size: 15px;&quot;&gt;equipment&lt;/font&gt;&lt;/div&gt;&lt;font style=&quot;font-size: 15px;&quot;&gt;(อุปกรณ์)&lt;/font&gt;" style="rounded=0;whiteSpace=wrap;html=1;" parent="1" vertex="1">
          <mxGeometry x="790" y="330" width="120" height="60" as="geometry" />
        </mxCell>
        <mxCell id="1LF8vhfMmIGUZuDhbewy-5" value="จอง, ยืม, คืน&lt;div&gt;borrowlist&lt;br&gt;&lt;/div&gt;" style="rhombus;whiteSpace=wrap;html=1;" parent="1" vertex="1">
          <mxGeometry x="630" y="325" width="100" height="70" as="geometry" />
        </mxCell>
        <mxCell id="1LF8vhfMmIGUZuDhbewy-6" value="" style="endArrow=none;html=1;rounded=0;exitX=1;exitY=0.5;exitDx=0;exitDy=0;entryX=0;entryY=0.5;entryDx=0;entryDy=0;endFill=0;" parent="1" source="1LF8vhfMmIGUZuDhbewy-2" target="1LF8vhfMmIGUZuDhbewy-5" edge="1">
          <mxGeometry width="50" height="50" relative="1" as="geometry">
            <mxPoint x="840" y="370" as="sourcePoint" />
            <mxPoint x="890" y="320" as="targetPoint" />
          </mxGeometry>
        </mxCell>
        <mxCell id="1LF8vhfMmIGUZuDhbewy-7" value="" style="endArrow=none;html=1;rounded=0;exitX=1;exitY=0.5;exitDx=0;exitDy=0;entryX=0;entryY=0.5;entryDx=0;entryDy=0;" parent="1" source="1LF8vhfMmIGUZuDhbewy-5" target="1LF8vhfMmIGUZuDhbewy-4" edge="1">
          <mxGeometry width="50" height="50" relative="1" as="geometry">
            <mxPoint x="800" y="370" as="sourcePoint" />
            <mxPoint x="850" y="320" as="targetPoint" />
          </mxGeometry>
        </mxCell>
        <mxCell id="1LF8vhfMmIGUZuDhbewy-8" value="มี/เป็น" style="rhombus;whiteSpace=wrap;html=1;" parent="1" vertex="1">
          <mxGeometry x="960" y="330" width="80" height="60" as="geometry" />
        </mxCell>
        <mxCell id="1LF8vhfMmIGUZuDhbewy-9" value="&lt;span style=&quot;font-size: 15px;&quot;&gt;Type&lt;/span&gt;" style="rounded=0;whiteSpace=wrap;html=1;" parent="1" vertex="1">
          <mxGeometry x="1085" y="330" width="85" height="60" as="geometry" />
        </mxCell>
        <mxCell id="1LF8vhfMmIGUZuDhbewy-10" value="" style="endArrow=none;html=1;rounded=0;exitX=1;exitY=0.5;exitDx=0;exitDy=0;entryX=0;entryY=0.5;entryDx=0;entryDy=0;" parent="1" source="1LF8vhfMmIGUZuDhbewy-4" target="1LF8vhfMmIGUZuDhbewy-8" edge="1">
          <mxGeometry width="50" height="50" relative="1" as="geometry">
            <mxPoint x="1170" y="440" as="sourcePoint" />
            <mxPoint x="1220" y="390" as="targetPoint" />
          </mxGeometry>
        </mxCell>
        <mxCell id="1LF8vhfMmIGUZuDhbewy-11" value="&lt;span style=&quot;font-size: 15px;&quot;&gt;Status&lt;/span&gt;" style="rounded=0;whiteSpace=wrap;html=1;" parent="1" vertex="1">
          <mxGeometry x="1375" y="280" width="120" height="60" as="geometry" />
        </mxCell>
        <mxCell id="1LF8vhfMmIGUZuDhbewy-12" value="&lt;div&gt;&lt;span style=&quot;font-size: 15px;&quot;&gt;history&lt;/span&gt;&lt;/div&gt;&lt;span style=&quot;font-size: 15px;&quot;&gt;(ประวัติ)&lt;/span&gt;" style="rounded=0;whiteSpace=wrap;html=1;" parent="1" vertex="1">
          <mxGeometry x="1375" y="400" width="120" height="60" as="geometry" />
        </mxCell>
        <mxCell id="1LF8vhfMmIGUZuDhbewy-13" value="" style="endArrow=none;html=1;rounded=0;exitX=0.5;exitY=1;exitDx=0;exitDy=0;" parent="1" source="1LF8vhfMmIGUZuDhbewy-2" target="1LF8vhfMmIGUZuDhbewy-3" edge="1">
          <mxGeometry width="50" height="50" relative="1" as="geometry">
            <mxPoint x="710" y="490" as="sourcePoint" />
            <mxPoint x="760" y="440" as="targetPoint" />
          </mxGeometry>
        </mxCell>
        <mxCell id="1LF8vhfMmIGUZuDhbewy-14" value="" style="endArrow=none;html=1;rounded=0;exitX=0.5;exitY=1;exitDx=0;exitDy=0;entryX=0.5;entryY=0;entryDx=0;entryDy=0;" parent="1" source="1LF8vhfMmIGUZuDhbewy-3" target="1LF8vhfMmIGUZuDhbewy-1" edge="1">
          <mxGeometry width="50" height="50" relative="1" as="geometry">
            <mxPoint x="710" y="490" as="sourcePoint" />
            <mxPoint x="760" y="440" as="targetPoint" />
          </mxGeometry>
        </mxCell>
        <mxCell id="1LF8vhfMmIGUZuDhbewy-15" value="" style="endArrow=none;html=1;rounded=0;exitX=1;exitY=0.5;exitDx=0;exitDy=0;entryX=0;entryY=0.5;entryDx=0;entryDy=0;" parent="1" source="1LF8vhfMmIGUZuDhbewy-8" target="1LF8vhfMmIGUZuDhbewy-9" edge="1">
          <mxGeometry width="50" height="50" relative="1" as="geometry">
            <mxPoint x="1050" y="480" as="sourcePoint" />
            <mxPoint x="1100" y="430" as="targetPoint" />
          </mxGeometry>
        </mxCell>
        <mxCell id="1LF8vhfMmIGUZuDhbewy-16" value="วันที่ยืม" style="ellipse;whiteSpace=wrap;html=1;" parent="1" vertex="1">
          <mxGeometry x="670" y="230" width="70" height="40" as="geometry" />
        </mxCell>
        <mxCell id="1LF8vhfMmIGUZuDhbewy-17" value="วันที่คืน" style="ellipse;whiteSpace=wrap;html=1;" parent="1" vertex="1">
          <mxGeometry x="719" y="280" width="70" height="40" as="geometry" />
        </mxCell>
        <mxCell id="1LF8vhfMmIGUZuDhbewy-18" value="id_agent" style="ellipse;whiteSpace=wrap;html=1;" parent="1" vertex="1">
          <mxGeometry x="400" y="270" width="70" height="40" as="geometry" />
        </mxCell>
        <mxCell id="1LF8vhfMmIGUZuDhbewy-19" value="id_patient" style="ellipse;whiteSpace=wrap;html=1;" parent="1" vertex="1">
          <mxGeometry x="450" y="570" width="70" height="40" as="geometry" />
        </mxCell>
        <mxCell id="1LF8vhfMmIGUZuDhbewy-20" value="name" style="ellipse;whiteSpace=wrap;html=1;" parent="1" vertex="1">
          <mxGeometry x="450" y="220" width="70" height="40" as="geometry" />
        </mxCell>
        <mxCell id="1LF8vhfMmIGUZuDhbewy-21" value="i_status" style="ellipse;whiteSpace=wrap;html=1;" parent="1" vertex="1">
          <mxGeometry x="860" y="270" width="70" height="40" as="geometry" />
        </mxCell>
        <mxCell id="1LF8vhfMmIGUZuDhbewy-22" value="id_type" style="ellipse;whiteSpace=wrap;html=1;" parent="1" vertex="1">
          <mxGeometry x="1040" y="260" width="70" height="40" as="geometry" />
        </mxCell>
        <mxCell id="1LF8vhfMmIGUZuDhbewy-23" value="name_type" style="ellipse;whiteSpace=wrap;html=1;" parent="1" vertex="1">
          <mxGeometry x="1130" y="240" width="70" height="40" as="geometry" />
        </mxCell>
        <mxCell id="1LF8vhfMmIGUZuDhbewy-24" value="id_status" style="ellipse;whiteSpace=wrap;html=1;" parent="1" vertex="1">
          <mxGeometry x="1355" y="200" width="70" height="40" as="geometry" />
        </mxCell>
        <mxCell id="1LF8vhfMmIGUZuDhbewy-25" value="&lt;div&gt;&lt;span style=&quot;font-size: 15px;&quot;&gt;staff&lt;/span&gt;&lt;/div&gt;&lt;div&gt;&lt;span style=&quot;font-size: 15px;&quot;&gt;(เจ้าหน้าที่)&lt;/span&gt;&lt;/div&gt;" style="rounded=0;whiteSpace=wrap;html=1;" parent="1" vertex="1">
          <mxGeometry x="620" y="460" width="120" height="60" as="geometry" />
        </mxCell>
        <mxCell id="1LF8vhfMmIGUZuDhbewy-26" value="" style="endArrow=none;html=1;rounded=0;exitX=0.5;exitY=1;exitDx=0;exitDy=0;entryX=0.5;entryY=0;entryDx=0;entryDy=0;" parent="1" source="1LF8vhfMmIGUZuDhbewy-5" target="1LF8vhfMmIGUZuDhbewy-25" edge="1">
          <mxGeometry width="50" height="50" relative="1" as="geometry">
            <mxPoint x="800" y="480" as="sourcePoint" />
            <mxPoint x="850" y="430" as="targetPoint" />
          </mxGeometry>
        </mxCell>
        <mxCell id="1LF8vhfMmIGUZuDhbewy-27" value="M" style="text;html=1;align=center;verticalAlign=middle;whiteSpace=wrap;rounded=0;" parent="1" vertex="1">
          <mxGeometry x="530" y="580" width="20" height="25" as="geometry" />
        </mxCell>
        <mxCell id="1LF8vhfMmIGUZuDhbewy-28" value="1" style="text;html=1;align=center;verticalAlign=middle;whiteSpace=wrap;rounded=0;" parent="1" vertex="1">
          <mxGeometry x="530" y="430" width="20" height="20" as="geometry" />
        </mxCell>
        <mxCell id="1LF8vhfMmIGUZuDhbewy-29" value="M" style="text;html=1;align=center;verticalAlign=middle;whiteSpace=wrap;rounded=0;" parent="1" vertex="1">
          <mxGeometry x="610" y="360" width="20" height="20" as="geometry" />
        </mxCell>
        <mxCell id="1LF8vhfMmIGUZuDhbewy-30" value="N" style="text;html=1;align=center;verticalAlign=middle;whiteSpace=wrap;rounded=0;" parent="1" vertex="1">
          <mxGeometry x="755" y="360" width="20" height="20" as="geometry" />
        </mxCell>
        <mxCell id="1LF8vhfMmIGUZuDhbewy-31" value="M" style="text;html=1;align=center;verticalAlign=middle;whiteSpace=wrap;rounded=0;" parent="1" vertex="1">
          <mxGeometry x="680" y="420" width="20" height="20" as="geometry" />
        </mxCell>
        <mxCell id="1LF8vhfMmIGUZuDhbewy-32" value="M" style="text;html=1;align=center;verticalAlign=middle;whiteSpace=wrap;rounded=0;" parent="1" vertex="1">
          <mxGeometry x="930" y="340" width="20" height="20" as="geometry" />
        </mxCell>
        <mxCell id="1LF8vhfMmIGUZuDhbewy-33" value="1" style="text;html=1;align=center;verticalAlign=middle;whiteSpace=wrap;rounded=0;" parent="1" vertex="1">
          <mxGeometry x="1050" y="340" width="20" height="20" as="geometry" />
        </mxCell>
        <mxCell id="1LF8vhfMmIGUZuDhbewy-34" value="" style="endArrow=none;html=1;rounded=0;exitX=0.25;exitY=0;exitDx=0;exitDy=0;entryX=0.5;entryY=1;entryDx=0;entryDy=0;" parent="1" source="1LF8vhfMmIGUZuDhbewy-1" target="1LF8vhfMmIGUZuDhbewy-19" edge="1">
          <mxGeometry width="50" height="50" relative="1" as="geometry">
            <mxPoint x="670" y="520" as="sourcePoint" />
            <mxPoint x="720" y="470" as="targetPoint" />
          </mxGeometry>
        </mxCell>
        <mxCell id="1LF8vhfMmIGUZuDhbewy-35" value="" style="endArrow=none;html=1;rounded=0;exitX=0.25;exitY=0;exitDx=0;exitDy=0;entryX=1;entryY=1;entryDx=0;entryDy=0;" parent="1" source="1LF8vhfMmIGUZuDhbewy-2" target="1LF8vhfMmIGUZuDhbewy-18" edge="1">
          <mxGeometry width="50" height="50" relative="1" as="geometry">
            <mxPoint x="670" y="420" as="sourcePoint" />
            <mxPoint x="720" y="370" as="targetPoint" />
          </mxGeometry>
        </mxCell>
        <mxCell id="1LF8vhfMmIGUZuDhbewy-36" value="" style="endArrow=none;html=1;rounded=0;exitX=0.4;exitY=0;exitDx=0;exitDy=0;entryX=0.5;entryY=1;entryDx=0;entryDy=0;exitPerimeter=0;" parent="1" source="1LF8vhfMmIGUZuDhbewy-2" target="1LF8vhfMmIGUZuDhbewy-20" edge="1">
          <mxGeometry width="50" height="50" relative="1" as="geometry">
            <mxPoint x="670" y="420" as="sourcePoint" />
            <mxPoint x="720" y="370" as="targetPoint" />
          </mxGeometry>
        </mxCell>
        <mxCell id="1LF8vhfMmIGUZuDhbewy-37" value="" style="endArrow=none;html=1;rounded=0;exitX=0.5;exitY=1;exitDx=0;exitDy=0;entryX=0.625;entryY=0.117;entryDx=0;entryDy=0;entryPerimeter=0;" parent="1" source="1LF8vhfMmIGUZuDhbewy-16" target="1LF8vhfMmIGUZuDhbewy-5" edge="1">
          <mxGeometry width="50" height="50" relative="1" as="geometry">
            <mxPoint x="610" y="420" as="sourcePoint" />
            <mxPoint x="660" y="370" as="targetPoint" />
          </mxGeometry>
        </mxCell>
        <mxCell id="1LF8vhfMmIGUZuDhbewy-38" value="" style="endArrow=none;html=1;rounded=0;exitX=0;exitY=1;exitDx=0;exitDy=0;entryX=1;entryY=0;entryDx=0;entryDy=0;" parent="1" source="1LF8vhfMmIGUZuDhbewy-17" target="1LF8vhfMmIGUZuDhbewy-5" edge="1">
          <mxGeometry width="50" height="50" relative="1" as="geometry">
            <mxPoint x="610" y="420" as="sourcePoint" />
            <mxPoint x="660" y="370" as="targetPoint" />
          </mxGeometry>
        </mxCell>
        <mxCell id="1LF8vhfMmIGUZuDhbewy-39" value="" style="endArrow=none;html=1;rounded=0;exitX=0.75;exitY=0;exitDx=0;exitDy=0;entryX=0.5;entryY=1;entryDx=0;entryDy=0;" parent="1" source="1LF8vhfMmIGUZuDhbewy-4" target="1LF8vhfMmIGUZuDhbewy-21" edge="1">
          <mxGeometry width="50" height="50" relative="1" as="geometry">
            <mxPoint x="890" y="360" as="sourcePoint" />
            <mxPoint x="940" y="310" as="targetPoint" />
          </mxGeometry>
        </mxCell>
        <mxCell id="1LF8vhfMmIGUZuDhbewy-40" value="" style="endArrow=none;html=1;rounded=0;exitX=0.25;exitY=0;exitDx=0;exitDy=0;entryX=0.605;entryY=0.993;entryDx=0;entryDy=0;entryPerimeter=0;" parent="1" source="1LF8vhfMmIGUZuDhbewy-9" target="1LF8vhfMmIGUZuDhbewy-22" edge="1">
          <mxGeometry width="50" height="50" relative="1" as="geometry">
            <mxPoint x="965" y="380" as="sourcePoint" />
            <mxPoint x="1015" y="330" as="targetPoint" />
          </mxGeometry>
        </mxCell>
        <mxCell id="1LF8vhfMmIGUZuDhbewy-41" value="" style="endArrow=none;html=1;rounded=0;exitX=0.75;exitY=0;exitDx=0;exitDy=0;entryX=0.5;entryY=1;entryDx=0;entryDy=0;" parent="1" source="1LF8vhfMmIGUZuDhbewy-9" target="1LF8vhfMmIGUZuDhbewy-23" edge="1">
          <mxGeometry width="50" height="50" relative="1" as="geometry">
            <mxPoint x="965" y="380" as="sourcePoint" />
            <mxPoint x="1015" y="330" as="targetPoint" />
          </mxGeometry>
        </mxCell>
        <mxCell id="1LF8vhfMmIGUZuDhbewy-42" value="" style="endArrow=none;html=1;rounded=0;exitX=0.25;exitY=0;exitDx=0;exitDy=0;entryX=0.5;entryY=1;entryDx=0;entryDy=0;" parent="1" source="1LF8vhfMmIGUZuDhbewy-11" target="1LF8vhfMmIGUZuDhbewy-24" edge="1">
          <mxGeometry width="50" height="50" relative="1" as="geometry">
            <mxPoint x="1255" y="170" as="sourcePoint" />
            <mxPoint x="1385" y="250" as="targetPoint" />
          </mxGeometry>
        </mxCell>
        <mxCell id="1LF8vhfMmIGUZuDhbewy-43" value="&lt;div&gt;&lt;font style=&quot;font-size: 15px;&quot;&gt;giveaway&lt;/font&gt;&lt;/div&gt;&lt;font style=&quot;font-size: 15px;&quot;&gt;(ของแจก)&lt;/font&gt;" style="rounded=0;whiteSpace=wrap;html=1;" parent="1" vertex="1">
          <mxGeometry x="730" y="130" width="120" height="60" as="geometry" />
        </mxCell>
        <mxCell id="1LF8vhfMmIGUZuDhbewy-44" value="รับ" style="rhombus;whiteSpace=wrap;html=1;" parent="1" vertex="1">
          <mxGeometry x="570" y="130" width="80" height="60" as="geometry" />
        </mxCell>
        <mxCell id="1LF8vhfMmIGUZuDhbewy-45" value="" style="endArrow=none;html=1;rounded=0;entryX=0;entryY=0.5;entryDx=0;entryDy=0;exitX=1;exitY=0.5;exitDx=0;exitDy=0;" parent="1" source="1LF8vhfMmIGUZuDhbewy-44" target="1LF8vhfMmIGUZuDhbewy-43" edge="1">
          <mxGeometry width="50" height="50" relative="1" as="geometry">
            <mxPoint x="600" y="330" as="sourcePoint" />
            <mxPoint x="650" y="280" as="targetPoint" />
          </mxGeometry>
        </mxCell>
        <mxCell id="1LF8vhfMmIGUZuDhbewy-46" value="" style="endArrow=none;html=1;rounded=0;exitX=0.5;exitY=0;exitDx=0;exitDy=0;entryX=0;entryY=0.5;entryDx=0;entryDy=0;edgeStyle=orthogonalEdgeStyle;" parent="1" source="1LF8vhfMmIGUZuDhbewy-2" target="1LF8vhfMmIGUZuDhbewy-44" edge="1">
          <mxGeometry width="50" height="50" relative="1" as="geometry">
            <mxPoint x="730" y="330" as="sourcePoint" />
            <mxPoint x="780" y="280" as="targetPoint" />
          </mxGeometry>
        </mxCell>
        <mxCell id="1LF8vhfMmIGUZuDhbewy-47" value="id_giveaway" style="ellipse;whiteSpace=wrap;html=1;" parent="1" vertex="1">
          <mxGeometry x="724" y="70" width="70" height="40" as="geometry" />
        </mxCell>
        <mxCell id="1LF8vhfMmIGUZuDhbewy-48" value="M" style="text;html=1;align=center;verticalAlign=middle;whiteSpace=wrap;rounded=0;" parent="1" vertex="1">
          <mxGeometry x="540" y="140" width="20" height="20" as="geometry" />
        </mxCell>
        <mxCell id="1LF8vhfMmIGUZuDhbewy-49" value="N" style="text;html=1;align=center;verticalAlign=middle;whiteSpace=wrap;rounded=0;" parent="1" vertex="1">
          <mxGeometry x="680" y="140" width="20" height="20" as="geometry" />
        </mxCell>
        <mxCell id="1LF8vhfMmIGUZuDhbewy-50" value="จำนวน" style="ellipse;whiteSpace=wrap;html=1;" parent="1" vertex="1">
          <mxGeometry x="800" y="60" width="70" height="40" as="geometry" />
        </mxCell>
        <mxCell id="1LF8vhfMmIGUZuDhbewy-51" value="name" style="ellipse;whiteSpace=wrap;html=1;" parent="1" vertex="1">
          <mxGeometry x="1445" y="200" width="70" height="40" as="geometry" />
        </mxCell>
        <mxCell id="1LF8vhfMmIGUZuDhbewy-52" value="" style="endArrow=none;html=1;rounded=0;entryX=0.5;entryY=1;entryDx=0;entryDy=0;" parent="1" target="1LF8vhfMmIGUZuDhbewy-51" edge="1">
          <mxGeometry width="50" height="50" relative="1" as="geometry">
            <mxPoint x="1465" y="280" as="sourcePoint" />
            <mxPoint x="1365" y="280" as="targetPoint" />
          </mxGeometry>
        </mxCell>
        <mxCell id="1LF8vhfMmIGUZuDhbewy-54" value="giveawaylist" style="text;html=1;align=center;verticalAlign=middle;whiteSpace=wrap;rounded=0;" parent="1" vertex="1">
          <mxGeometry x="570" y="100" width="60" height="30" as="geometry" />
        </mxCell>
        <mxCell id="1LF8vhfMmIGUZuDhbewy-55" value="&lt;font style=&quot;font-size: 18px;&quot;&gt;1 = พร้อมใช้ (Available)&lt;/font&gt;&lt;div style=&quot;font-size: 18px;&quot;&gt;&lt;font style=&quot;font-size: 18px;&quot;&gt;2 = จอง (booked)&lt;/font&gt;&lt;/div&gt;&lt;div style=&quot;font-size: 18px;&quot;&gt;&lt;font style=&quot;font-size: 18px;&quot;&gt;3 = อนุมัติ (approve)&lt;/font&gt;&lt;/div&gt;&lt;div style=&quot;font-size: 18px;&quot;&gt;&lt;font style=&quot;font-size: 18px;&quot;&gt;4 = ถูกยืม (borrowed)&lt;/font&gt;&lt;/div&gt;&lt;div style=&quot;font-size: 18px;&quot;&gt;&lt;font style=&quot;font-size: 18px;&quot;&gt;5 = ชำรุด/รอซ่อม (defect)&lt;/font&gt;&lt;/div&gt;" style="text;html=1;align=left;verticalAlign=middle;whiteSpace=wrap;rounded=0;" parent="1" vertex="1">
          <mxGeometry x="1330" y="600" width="210" height="130" as="geometry" />
        </mxCell>
        <mxCell id="1LF8vhfMmIGUZuDhbewy-56" value="" style="endArrow=none;html=1;rounded=0;exitX=0.351;exitY=-0.002;exitDx=0;exitDy=0;entryX=0.5;entryY=1;entryDx=0;entryDy=0;exitPerimeter=0;" parent="1" source="1LF8vhfMmIGUZuDhbewy-43" target="1LF8vhfMmIGUZuDhbewy-47" edge="1">
          <mxGeometry width="50" height="50" relative="1" as="geometry">
            <mxPoint x="757.5" y="270" as="sourcePoint" />
            <mxPoint x="772.5" y="220" as="targetPoint" />
          </mxGeometry>
        </mxCell>
        <mxCell id="1LF8vhfMmIGUZuDhbewy-57" value="" style="endArrow=none;html=1;rounded=0;exitX=0.731;exitY=-0.002;exitDx=0;exitDy=0;entryX=0.366;entryY=0.99;entryDx=0;entryDy=0;exitPerimeter=0;entryPerimeter=0;" parent="1" source="1LF8vhfMmIGUZuDhbewy-43" target="1LF8vhfMmIGUZuDhbewy-50" edge="1">
          <mxGeometry width="50" height="50" relative="1" as="geometry">
            <mxPoint x="791" y="140" as="sourcePoint" />
            <mxPoint x="775" y="100" as="targetPoint" />
          </mxGeometry>
        </mxCell>
        <mxCell id="1LF8vhfMmIGUZuDhbewy-58" value="&lt;div&gt;&lt;font style=&quot;font-size: 19px;&quot;&gt;&lt;b style=&quot;&quot;&gt;&lt;font color=&quot;#0000ff&quot;&gt;admin&lt;/font&gt;(&lt;/b&gt;&lt;/font&gt;&lt;/div&gt;&lt;font style=&quot;font-size: 19px;&quot;&gt;&lt;b style=&quot;&quot;&gt;&lt;font color=&quot;#0000ff&quot;&gt;agent&lt;/font&gt;(&lt;/b&gt;&lt;/font&gt;&lt;div style=&quot;font-size: 19px;&quot;&gt;&lt;font style=&quot;font-size: 19px;&quot;&gt;&lt;b style=&quot;&quot;&gt;&lt;font color=&quot;#0000ff&quot;&gt;patient&lt;/font&gt;(&lt;/b&gt;&lt;/font&gt;&lt;/div&gt;&lt;div style=&quot;font-size: 19px;&quot;&gt;&lt;font style=&quot;font-size: 19px;&quot;&gt;&lt;b style=&quot;&quot;&gt;&lt;font color=&quot;#0000ff&quot;&gt;staff&lt;/font&gt;(&lt;/b&gt;&lt;/font&gt;&lt;/div&gt;&lt;div style=&quot;font-size: 19px;&quot;&gt;&lt;font style=&quot;font-size: 19px;&quot;&gt;&lt;b style=&quot;&quot;&gt;&lt;font color=&quot;#0000ff&quot;&gt;equipment&lt;/font&gt;(&lt;/b&gt;&lt;/font&gt;&lt;/div&gt;&lt;div style=&quot;font-size: 19px;&quot;&gt;&lt;font style=&quot;font-size: 19px;&quot;&gt;&lt;b style=&quot;&quot;&gt;&lt;font color=&quot;#0000ff&quot;&gt;borrow&lt;/font&gt;(&lt;/b&gt;&lt;/font&gt;&lt;/div&gt;&lt;div style=&quot;font-size: 19px;&quot;&gt;&lt;font style=&quot;font-size: 19px;&quot;&gt;&lt;b style=&quot;&quot;&gt;&lt;font color=&quot;#0000ff&quot;&gt;borrowlist&lt;/font&gt;(&lt;/b&gt;&lt;/font&gt;&lt;/div&gt;&lt;div style=&quot;font-size: 19px;&quot;&gt;&lt;font style=&quot;font-size: 19px;&quot;&gt;&lt;b style=&quot;&quot;&gt;&lt;font color=&quot;#0000ff&quot;&gt;history&lt;/font&gt;(&lt;/b&gt;&lt;/font&gt;&lt;/div&gt;&lt;div style=&quot;font-size: 19px;&quot;&gt;&lt;font style=&quot;font-size: 19px;&quot;&gt;&lt;b style=&quot;&quot;&gt;&lt;font color=&quot;#0000ff&quot;&gt;giveaway&lt;/font&gt;(&lt;/b&gt;&lt;/font&gt;&lt;/div&gt;&lt;div style=&quot;font-size: 19px;&quot;&gt;&lt;font style=&quot;font-size: 19px;&quot;&gt;&lt;b style=&quot;&quot;&gt;&lt;font color=&quot;#0000ff&quot;&gt;giveawaylist&lt;/font&gt;(&lt;/b&gt;&lt;/font&gt;&lt;/div&gt;&lt;div style=&quot;font-size: 19px;&quot;&gt;&lt;font style=&quot;font-size: 19px;&quot;&gt;&lt;b style=&quot;&quot;&gt;&lt;font color=&quot;#0000ff&quot;&gt;status&lt;/font&gt;(&lt;/b&gt;&lt;/font&gt;&lt;/div&gt;&lt;div style=&quot;font-size: 19px;&quot;&gt;&lt;font style=&quot;font-size: 19px;&quot;&gt;&lt;b style=&quot;&quot;&gt;&lt;font color=&quot;#0000ff&quot;&gt;type&lt;/font&gt;(&lt;/b&gt;&lt;/font&gt;&lt;/div&gt;" style="text;html=1;align=left;verticalAlign=middle;whiteSpace=wrap;rounded=0;" parent="1" vertex="1">
          <mxGeometry x="260" y="740" width="210" height="280" as="geometry" />
        </mxCell>
        <mxCell id="1LF8vhfMmIGUZuDhbewy-59" value="&lt;div&gt;&lt;span style=&quot;font-size: 15px;&quot;&gt;Admin&lt;/span&gt;&lt;/div&gt;&lt;span style=&quot;font-size: 15px;&quot;&gt;(ผู้ดูแลระบบ)&lt;/span&gt;" style="rounded=0;whiteSpace=wrap;html=1;" parent="1" vertex="1">
          <mxGeometry x="1375" y="520" width="120" height="60" as="geometry" />
        </mxCell>
        <mxCell id="1LF8vhfMmIGUZuDhbewy-60" value="bor_status" style="ellipse;whiteSpace=wrap;html=1;" parent="1" vertex="1">
          <mxGeometry x="590" y="260" width="70" height="40" as="geometry" />
        </mxCell>
        <mxCell id="1LF8vhfMmIGUZuDhbewy-61" value="" style="endArrow=none;html=1;rounded=0;exitX=0;exitY=0;exitDx=0;exitDy=0;entryX=0.5;entryY=1;entryDx=0;entryDy=0;" parent="1" source="1LF8vhfMmIGUZuDhbewy-5" target="1LF8vhfMmIGUZuDhbewy-60" edge="1">
          <mxGeometry width="50" height="50" relative="1" as="geometry">
            <mxPoint x="680" y="310" as="sourcePoint" />
            <mxPoint x="860" y="290" as="targetPoint" />
          </mxGeometry>
        </mxCell>
        <mxCell id="1LF8vhfMmIGUZuDhbewy-62" value="" style="endArrow=classic;html=1;rounded=0;exitX=0.011;exitY=0.546;exitDx=0;exitDy=0;exitPerimeter=0;edgeStyle=orthogonalEdgeStyle;entryX=0.008;entryY=0.631;entryDx=0;entryDy=0;entryPerimeter=0;strokeWidth=2;" parent="1" source="1LF8vhfMmIGUZuDhbewy-58" target="1LF8vhfMmIGUZuDhbewy-58" edge="1">
          <mxGeometry width="50" height="50" relative="1" as="geometry">
            <mxPoint x="250" y="910" as="sourcePoint" />
            <mxPoint x="300" y="860" as="targetPoint" />
            <Array as="points">
              <mxPoint x="250" y="900" />
            </Array>
          </mxGeometry>
        </mxCell>
        <mxCell id="1LF8vhfMmIGUZuDhbewy-68" value="" style="edgeStyle=orthogonalEdgeStyle;rounded=0;orthogonalLoop=1;jettySize=auto;html=1;endArrow=none;endFill=0;" parent="1" source="1LF8vhfMmIGUZuDhbewy-63" target="1LF8vhfMmIGUZuDhbewy-64" edge="1">
          <mxGeometry relative="1" as="geometry" />
        </mxCell>
        <mxCell id="1LF8vhfMmIGUZuDhbewy-63" value="hospital patient&lt;br&gt;ผู้ป่วยจากรพ" style="rounded=0;whiteSpace=wrap;html=1;" parent="1" vertex="1">
          <mxGeometry x="620" y="640" width="120" height="60" as="geometry" />
        </mxCell>
        <mxCell id="1LF8vhfMmIGUZuDhbewy-69" value="" style="edgeStyle=orthogonalEdgeStyle;rounded=0;orthogonalLoop=1;jettySize=auto;html=1;endArrow=none;endFill=0;" parent="1" source="1LF8vhfMmIGUZuDhbewy-64" target="1LF8vhfMmIGUZuDhbewy-25" edge="1">
          <mxGeometry relative="1" as="geometry" />
        </mxCell>
        <mxCell id="1LF8vhfMmIGUZuDhbewy-64" value="ต่อสัญญา" style="rhombus;whiteSpace=wrap;html=1;" parent="1" vertex="1">
          <mxGeometry x="640" y="560" width="80" height="45" as="geometry" />
        </mxCell>
        <mxCell id="1LF8vhfMmIGUZuDhbewy-70" value="1" style="text;html=1;align=center;verticalAlign=middle;resizable=0;points=[];autosize=1;strokeColor=none;fillColor=none;" parent="1" vertex="1">
          <mxGeometry x="670" y="520" width="30" height="30" as="geometry" />
        </mxCell>
        <mxCell id="1LF8vhfMmIGUZuDhbewy-71" value="M" style="text;html=1;align=center;verticalAlign=middle;resizable=0;points=[];autosize=1;strokeColor=none;fillColor=none;" parent="1" vertex="1">
          <mxGeometry x="675" y="610" width="30" height="30" as="geometry" />
        </mxCell>
      </root>
    </mxGraphModel>
  </diagram>
</mxfile>
